<mxfile modified="2020-09-15T17:31:48.631Z" host="app.diagrams.net" agent="5.0 (Macintosh; Intel Mac OS X 10_15_6) AppleWebKit/537.36 (KHTML, like Gecko) Chrome/85.0.4183.102 Safari/537.36" etag="qD5gXp3yVas6gwPTFBlQ" version="13.7.1" type="github">
  <diagram id="222e1999-71a5-0e0b-9e1c-3837c7d2da02" name="Relay Tier">
    <mxGraphModel dx="990" dy="543" grid="1" gridSize="10" guides="1" tooltips="1" connect="1" arrows="1" fold="1" page="1" pageScale="1" pageWidth="1100" pageHeight="850" math="0" shadow="0">
      <root>
        <mxCell id="0" />
        <mxCell id="1" parent="0" />
        <mxCell id="37" value="&lt;b&gt;Syntinel Core&lt;/b&gt;&lt;br&gt;AWS Services that receive, log, broker and resolve messages." style="rounded=1;whiteSpace=wrap;html=1;fillColor=#d5e8d4;strokeColor=#82b366;verticalAlign=bottom;" parent="1" vertex="1">
          <mxGeometry x="130" y="60" width="770" height="740" as="geometry" />
        </mxCell>
        <mxCell id="h3eBN5jXIzi2TajNPJDc-56" value="&lt;b&gt;Channels&lt;/b&gt;&lt;br&gt;Functions that can know how to map&amp;nbsp;&lt;br&gt;Syntinel objects to channel types and back." style="rounded=1;whiteSpace=wrap;html=1;fillColor=#FFFFCC;strokeColor=#999900;verticalAlign=bottom;" parent="1" vertex="1">
          <mxGeometry x="560" y="60" width="340" height="600" as="geometry" />
        </mxCell>
        <mxCell id="h3eBN5jXIzi2TajNPJDc-62" value="&lt;b&gt;Supported Channel Types&lt;/b&gt;" style="rounded=1;whiteSpace=wrap;html=1;fillColor=#f5f5f5;strokeColor=#666666;verticalAlign=top;fontColor=#333333;" parent="1" vertex="1">
          <mxGeometry x="570" y="275.5" width="320" height="104.5" as="geometry" />
        </mxCell>
        <mxCell id="eQHoO0I1sAO4lnQkATsk-57" style="edgeStyle=orthogonalEdgeStyle;rounded=0;orthogonalLoop=1;jettySize=auto;html=1;exitX=0;exitY=0.5;exitDx=0;exitDy=0;entryX=0.35;entryY=0.5;entryDx=0;entryDy=0;entryPerimeter=0;" parent="1" source="DazhFdRmCA850l7QKZzB-86" target="Oe_aaYZdlDnrvN6lTsQu-66" edge="1">
          <mxGeometry relative="1" as="geometry">
            <Array as="points">
              <mxPoint x="110" y="660" />
              <mxPoint x="110" y="464" />
            </Array>
          </mxGeometry>
        </mxCell>
        <mxCell id="DazhFdRmCA850l7QKZzB-86" value="&lt;b&gt;Resolvers&lt;/b&gt;&lt;br&gt;Functions that resolve signal messages." style="rounded=1;whiteSpace=wrap;html=1;fillColor=#dae8fc;strokeColor=#6c8ebf;verticalAlign=bottom;arcSize=17;" parent="1" vertex="1">
          <mxGeometry x="150" y="560" width="310" height="200" as="geometry" />
        </mxCell>
        <mxCell id="qePt231gWI_Q5qoE-xq--92" value="&lt;b&gt;Map Channel Specific Reply To&lt;br&gt;Syntinel Cue&lt;/b&gt;&lt;br&gt;" style="rounded=1;whiteSpace=wrap;html=1;fillColor=#FFFFCC;strokeColor=#CCCC00;verticalAlign=bottom;" parent="1" vertex="1">
          <mxGeometry x="570" y="410" width="322" height="180" as="geometry" />
        </mxCell>
        <mxCell id="qePt231gWI_Q5qoE-xq--73" value="&lt;b&gt;Map Signal To Supported&lt;br&gt;Channel Types&lt;/b&gt;" style="rounded=1;whiteSpace=wrap;html=1;fillColor=#FFFFCC;strokeColor=#CCCC00;verticalAlign=bottom;" parent="1" vertex="1">
          <mxGeometry x="626" y="70" width="210" height="180" as="geometry" />
        </mxCell>
        <mxCell id="56" style="edgeStyle=orthogonalEdgeStyle;rounded=0;html=1;exitX=0.65;exitY=0.5;exitPerimeter=0;jettySize=auto;orthogonalLoop=1;" parent="1" source="2" target="4" edge="1">
          <mxGeometry relative="1" as="geometry" />
        </mxCell>
        <mxCell id="2" value="Api Gateway&lt;br&gt;.../syntinel/signal&lt;br&gt;" style="outlineConnect=0;dashed=0;verticalLabelPosition=bottom;verticalAlign=top;align=center;html=1;shape=mxgraph.aws3.api_gateway;fillColor=#D9A741;gradientColor=none;" parent="1" vertex="1">
          <mxGeometry x="170" y="80.5" width="76.5" height="93" as="geometry" />
        </mxCell>
        <mxCell id="wFQxtatiro9FsYOD66ER-66" style="edgeStyle=orthogonalEdgeStyle;rounded=0;html=1;exitX=1;exitY=0.5;exitDx=0;exitDy=0;exitPerimeter=0;jettySize=auto;orthogonalLoop=1;" parent="1" source="4" target="20" edge="1">
          <mxGeometry relative="1" as="geometry" />
        </mxCell>
        <mxCell id="qePt231gWI_Q5qoE-xq--74" style="edgeStyle=orthogonalEdgeStyle;rounded=0;html=1;exitX=1;exitY=0.5;exitDx=0;exitDy=0;exitPerimeter=0;entryX=0;entryY=0.21;entryDx=0;entryDy=0;entryPerimeter=0;jettySize=auto;orthogonalLoop=1;" parent="1" source="4" target="20" edge="1">
          <mxGeometry relative="1" as="geometry">
            <Array as="points">
              <mxPoint x="590" y="127" />
              <mxPoint x="590" y="100" />
            </Array>
          </mxGeometry>
        </mxCell>
        <mxCell id="qePt231gWI_Q5qoE-xq--75" style="edgeStyle=orthogonalEdgeStyle;rounded=0;html=1;exitX=1;exitY=0.5;exitDx=0;exitDy=0;exitPerimeter=0;entryX=0;entryY=0.79;entryDx=0;entryDy=0;entryPerimeter=0;jettySize=auto;orthogonalLoop=1;" parent="1" source="4" target="20" edge="1">
          <mxGeometry relative="1" as="geometry">
            <Array as="points">
              <mxPoint x="590" y="127" />
              <mxPoint x="590" y="153" />
            </Array>
          </mxGeometry>
        </mxCell>
        <mxCell id="eQHoO0I1sAO4lnQkATsk-80" style="edgeStyle=orthogonalEdgeStyle;rounded=0;orthogonalLoop=1;jettySize=auto;html=1;exitX=1;exitY=0.79;exitDx=0;exitDy=0;exitPerimeter=0;entryX=0;entryY=0.22;entryDx=0;entryDy=0;entryPerimeter=0;" parent="1" source="4" target="qePt231gWI_Q5qoE-xq--71" edge="1">
          <mxGeometry relative="1" as="geometry">
            <Array as="points">
              <mxPoint x="440" y="154" />
              <mxPoint x="440" y="230" />
              <mxPoint x="148" y="230" />
              <mxPoint x="148" y="276" />
            </Array>
          </mxGeometry>
        </mxCell>
        <mxCell id="4" value="Lambda&lt;br&gt;syntinel-process-signal&lt;br&gt;" style="outlineConnect=0;dashed=0;verticalLabelPosition=bottom;verticalAlign=top;align=center;html=1;shape=mxgraph.aws3.lambda;fillColor=#F58534;gradientColor=none;" parent="1" vertex="1">
          <mxGeometry x="334.5" y="80.5" width="76.5" height="93" as="geometry" />
        </mxCell>
        <mxCell id="qePt231gWI_Q5qoE-xq--68" style="edgeStyle=orthogonalEdgeStyle;rounded=0;html=1;exitX=1;exitY=0.5;exitDx=0;exitDy=0;exitPerimeter=0;jettySize=auto;orthogonalLoop=1;" parent="1" source="20" edge="1">
          <mxGeometry relative="1" as="geometry">
            <mxPoint x="929" y="127" as="targetPoint" />
          </mxGeometry>
        </mxCell>
        <mxCell id="qePt231gWI_Q5qoE-xq--76" style="edgeStyle=orthogonalEdgeStyle;rounded=0;html=1;exitX=1;exitY=0.21;exitDx=0;exitDy=0;exitPerimeter=0;entryX=0;entryY=0.078;entryDx=0;entryDy=0;entryPerimeter=0;jettySize=auto;orthogonalLoop=1;" parent="1" source="20" target="b4fcRjHGLG0HaX6ezsnS-84" edge="1">
          <mxGeometry relative="1" as="geometry" />
        </mxCell>
        <mxCell id="qePt231gWI_Q5qoE-xq--77" style="edgeStyle=orthogonalEdgeStyle;rounded=0;html=1;exitX=1;exitY=0.79;exitDx=0;exitDy=0;exitPerimeter=0;entryX=0.013;entryY=0.289;entryDx=0;entryDy=0;entryPerimeter=0;jettySize=auto;orthogonalLoop=1;" parent="1" source="20" target="b4fcRjHGLG0HaX6ezsnS-84" edge="1">
          <mxGeometry relative="1" as="geometry" />
        </mxCell>
        <mxCell id="20" value="Lambda&lt;br&gt;syntinel-signal-publisher-*&lt;br&gt;" style="outlineConnect=0;dashed=0;verticalLabelPosition=bottom;verticalAlign=top;align=center;html=1;shape=mxgraph.aws3.lambda;fillColor=#F58534;gradientColor=none;" parent="1" vertex="1">
          <mxGeometry x="694" y="80" width="76.5" height="93" as="geometry" />
        </mxCell>
        <mxCell id="qePt231gWI_Q5qoE-xq--94" style="edgeStyle=orthogonalEdgeStyle;rounded=0;html=1;exitX=0.35;exitY=0.5;exitDx=0;exitDy=0;exitPerimeter=0;entryX=1;entryY=0.5;entryDx=0;entryDy=0;entryPerimeter=0;jettySize=auto;orthogonalLoop=1;" parent="1" source="42" target="b4fcRjHGLG0HaX6ezsnS-67" edge="1">
          <mxGeometry relative="1" as="geometry" />
        </mxCell>
        <mxCell id="42" value="Api Gateway&lt;br&gt;.../syntinel/cue/*&lt;br&gt;" style="outlineConnect=0;dashed=0;verticalLabelPosition=bottom;verticalAlign=top;align=center;html=1;shape=mxgraph.aws3.api_gateway;fillColor=#D9A741;gradientColor=none;" parent="1" vertex="1">
          <mxGeometry x="792" y="417.5" width="76.5" height="93" as="geometry" />
        </mxCell>
        <mxCell id="eQHoO0I1sAO4lnQkATsk-56" style="edgeStyle=orthogonalEdgeStyle;rounded=0;orthogonalLoop=1;jettySize=auto;html=1;exitX=1;exitY=0.79;exitDx=0;exitDy=0;exitPerimeter=0;entryX=1;entryY=0.5;entryDx=0;entryDy=0;" parent="1" source="45" target="DazhFdRmCA850l7QKZzB-86" edge="1">
          <mxGeometry relative="1" as="geometry">
            <Array as="points">
              <mxPoint x="550" y="491" />
              <mxPoint x="550" y="660" />
            </Array>
          </mxGeometry>
        </mxCell>
        <mxCell id="eQHoO0I1sAO4lnQkATsk-73" style="edgeStyle=orthogonalEdgeStyle;rounded=0;orthogonalLoop=1;jettySize=auto;html=1;exitX=0;exitY=0.79;exitDx=0;exitDy=0;exitPerimeter=0;entryX=1;entryY=0.79;entryDx=0;entryDy=0;entryPerimeter=0;" parent="1" source="45" target="Mhtk37EzJWFDV5I4tlfy-62" edge="1">
          <mxGeometry relative="1" as="geometry" />
        </mxCell>
        <mxCell id="eQHoO0I1sAO4lnQkATsk-79" style="edgeStyle=orthogonalEdgeStyle;rounded=0;orthogonalLoop=1;jettySize=auto;html=1;exitX=0.5;exitY=0;exitDx=0;exitDy=0;exitPerimeter=0;entryX=0;entryY=0.78;entryDx=0;entryDy=0;entryPerimeter=0;" parent="1" source="45" target="qePt231gWI_Q5qoE-xq--71" edge="1">
          <mxGeometry relative="1" as="geometry" />
        </mxCell>
        <mxCell id="45" value="Lambda&lt;br&gt;syntinel-process-cue&lt;br&gt;" style="outlineConnect=0;dashed=0;verticalLabelPosition=bottom;verticalAlign=top;align=center;html=1;shape=mxgraph.aws3.lambda;fillColor=#F58534;gradientColor=none;" parent="1" vertex="1">
          <mxGeometry x="450" y="417" width="76.5" height="93" as="geometry" />
        </mxCell>
        <mxCell id="Mhtk37EzJWFDV5I4tlfy-63" style="edgeStyle=orthogonalEdgeStyle;rounded=0;html=1;exitX=0.65;exitY=0.5;exitDx=0;exitDy=0;exitPerimeter=0;entryX=0;entryY=0.5;entryDx=0;entryDy=0;entryPerimeter=0;jettySize=auto;orthogonalLoop=1;" parent="1" source="Oe_aaYZdlDnrvN6lTsQu-66" target="Mhtk37EzJWFDV5I4tlfy-62" edge="1">
          <mxGeometry relative="1" as="geometry" />
        </mxCell>
        <mxCell id="Oe_aaYZdlDnrvN6lTsQu-66" value="Api Gateway&lt;br&gt;.../syntinel/status&lt;br&gt;" style="outlineConnect=0;dashed=0;verticalLabelPosition=bottom;verticalAlign=top;align=center;html=1;shape=mxgraph.aws3.api_gateway;fillColor=#D9A741;gradientColor=none;" parent="1" vertex="1">
          <mxGeometry x="169.5" y="417.5" width="76.5" height="93" as="geometry" />
        </mxCell>
        <mxCell id="qePt231gWI_Q5qoE-xq--95" style="edgeStyle=orthogonalEdgeStyle;rounded=0;html=1;exitX=0;exitY=0.5;exitDx=0;exitDy=0;exitPerimeter=0;jettySize=auto;orthogonalLoop=1;" parent="1" source="b4fcRjHGLG0HaX6ezsnS-67" target="45" edge="1">
          <mxGeometry relative="1" as="geometry" />
        </mxCell>
        <mxCell id="b4fcRjHGLG0HaX6ezsnS-67" value="Lambda&lt;br&gt;syntinel-cue-subscriber-*&lt;br&gt;" style="outlineConnect=0;dashed=0;verticalLabelPosition=bottom;verticalAlign=top;align=center;html=1;shape=mxgraph.aws3.lambda;fillColor=#F58534;gradientColor=none;" parent="1" vertex="1">
          <mxGeometry x="614" y="417" width="76.5" height="93" as="geometry" />
        </mxCell>
        <mxCell id="qePt231gWI_Q5qoE-xq--93" style="edgeStyle=orthogonalEdgeStyle;rounded=0;html=1;exitX=0.5;exitY=1;exitDx=0;exitDy=0;entryX=0.65;entryY=0.5;entryDx=0;entryDy=0;entryPerimeter=0;jettySize=auto;orthogonalLoop=1;" parent="1" source="b4fcRjHGLG0HaX6ezsnS-84" target="42" edge="1">
          <mxGeometry relative="1" as="geometry">
            <Array as="points">
              <mxPoint x="970" y="464" />
            </Array>
          </mxGeometry>
        </mxCell>
        <mxCell id="b4fcRjHGLG0HaX6ezsnS-84" value="Channels" style="rounded=1;whiteSpace=wrap;html=1;fillColor=none;strokeColor=#000000;verticalAlign=bottom;" parent="1" vertex="1">
          <mxGeometry x="930" y="80.5" width="80" height="251" as="geometry" />
        </mxCell>
        <mxCell id="b4fcRjHGLG0HaX6ezsnS-94" style="edgeStyle=orthogonalEdgeStyle;rounded=0;html=1;exitX=1;exitY=0.5;exitDx=0;exitDy=0;entryX=0.35;entryY=0.5;entryDx=0;entryDy=0;entryPerimeter=0;jettySize=auto;orthogonalLoop=1;" parent="1" source="b4fcRjHGLG0HaX6ezsnS-90" target="2" edge="1">
          <mxGeometry relative="1" as="geometry">
            <Array as="points">
              <mxPoint x="99" y="127" />
            </Array>
          </mxGeometry>
        </mxCell>
        <mxCell id="b4fcRjHGLG0HaX6ezsnS-90" value="Reporters" style="rounded=1;whiteSpace=wrap;html=1;fillColor=none;strokeColor=#000000;verticalAlign=bottom;" parent="1" vertex="1">
          <mxGeometry x="19" y="80" width="80" height="251" as="geometry" />
        </mxCell>
        <mxCell id="b4fcRjHGLG0HaX6ezsnS-91" value="" style="verticalLabelPosition=bottom;html=1;verticalAlign=top;align=center;strokeColor=none;fillColor=#00BEF2;shape=mxgraph.azure.computer;" parent="1" vertex="1">
          <mxGeometry x="34.5" y="91.5" width="50" height="45" as="geometry" />
        </mxCell>
        <mxCell id="b4fcRjHGLG0HaX6ezsnS-92" value="" style="verticalLabelPosition=bottom;html=1;verticalAlign=top;align=center;strokeColor=none;fillColor=#00BEF2;shape=mxgraph.azure.user;" parent="1" vertex="1">
          <mxGeometry x="34" y="170.5" width="47.5" height="50" as="geometry" />
        </mxCell>
        <mxCell id="b4fcRjHGLG0HaX6ezsnS-93" value="" style="verticalLabelPosition=bottom;html=1;verticalAlign=top;align=center;strokeColor=none;fillColor=#00BEF2;shape=mxgraph.azure.server_rack;" parent="1" vertex="1">
          <mxGeometry x="35.5" y="257" width="46" height="50" as="geometry" />
        </mxCell>
        <mxCell id="b4fcRjHGLG0HaX6ezsnS-96" value="&lt;font style=&quot;font-size: 36px&quot;&gt;Syntinel - Technical Architecture&lt;/font&gt;" style="text;html=1;resizable=0;points=[];autosize=1;align=left;verticalAlign=top;spacingTop=-4;" parent="1" vertex="1">
          <mxGeometry x="20" y="12" width="530" height="20" as="geometry" />
        </mxCell>
        <mxCell id="DazhFdRmCA850l7QKZzB-97" style="edgeStyle=orthogonalEdgeStyle;rounded=0;html=1;exitX=0.5;exitY=1;exitDx=0;exitDy=0;jettySize=auto;orthogonalLoop=1;" parent="1" source="DazhFdRmCA850l7QKZzB-86" target="DazhFdRmCA850l7QKZzB-86" edge="1">
          <mxGeometry relative="1" as="geometry" />
        </mxCell>
        <mxCell id="DazhFdRmCA850l7QKZzB-98" style="edgeStyle=orthogonalEdgeStyle;rounded=0;html=1;exitX=0.5;exitY=1;exitDx=0;exitDy=0;jettySize=auto;orthogonalLoop=1;" parent="1" source="DazhFdRmCA850l7QKZzB-86" target="DazhFdRmCA850l7QKZzB-86" edge="1">
          <mxGeometry relative="1" as="geometry" />
        </mxCell>
        <mxCell id="DazhFdRmCA850l7QKZzB-99" style="edgeStyle=orthogonalEdgeStyle;rounded=0;html=1;exitX=0.5;exitY=1;exitDx=0;exitDy=0;jettySize=auto;orthogonalLoop=1;" parent="1" source="DazhFdRmCA850l7QKZzB-86" target="DazhFdRmCA850l7QKZzB-86" edge="1">
          <mxGeometry relative="1" as="geometry" />
        </mxCell>
        <mxCell id="Y_TupKAwdbb3aOkOoUc_-59" style="edgeStyle=orthogonalEdgeStyle;rounded=0;orthogonalLoop=1;jettySize=auto;html=1;exitX=1;exitY=0.5;exitDx=0;exitDy=0;exitPerimeter=0;entryX=0;entryY=0.5;entryDx=0;entryDy=0;entryPerimeter=0;" parent="1" source="Mhtk37EzJWFDV5I4tlfy-62" target="20" edge="1">
          <mxGeometry relative="1" as="geometry">
            <mxPoint x="690" y="130" as="targetPoint" />
            <Array as="points">
              <mxPoint x="420" y="464" />
              <mxPoint x="420" y="330" />
              <mxPoint x="550" y="330" />
              <mxPoint x="550" y="127" />
            </Array>
          </mxGeometry>
        </mxCell>
        <mxCell id="eQHoO0I1sAO4lnQkATsk-77" style="edgeStyle=orthogonalEdgeStyle;rounded=0;orthogonalLoop=1;jettySize=auto;html=1;exitX=0.5;exitY=0;exitDx=0;exitDy=0;exitPerimeter=0;entryX=0;entryY=0.5;entryDx=0;entryDy=0;entryPerimeter=0;" parent="1" source="Mhtk37EzJWFDV5I4tlfy-62" target="qePt231gWI_Q5qoE-xq--71" edge="1">
          <mxGeometry relative="1" as="geometry" />
        </mxCell>
        <mxCell id="Mhtk37EzJWFDV5I4tlfy-62" value="Lambda&lt;br&gt;syntinel-process-status&lt;br&gt;" style="outlineConnect=0;dashed=0;verticalLabelPosition=bottom;verticalAlign=top;align=center;html=1;shape=mxgraph.aws3.lambda;fillColor=#F58534;gradientColor=none;" parent="1" vertex="1">
          <mxGeometry x="315" y="417.5" width="76.5" height="93" as="geometry" />
        </mxCell>
        <mxCell id="qePt231gWI_Q5qoE-xq--71" value="DynamoDB" style="outlineConnect=0;dashed=0;verticalLabelPosition=bottom;verticalAlign=top;align=center;html=1;shape=mxgraph.aws3.dynamo_db;fillColor=#2E73B8;gradientColor=none;" parent="1" vertex="1">
          <mxGeometry x="168.25" y="257" width="80" height="87" as="geometry" />
        </mxCell>
        <mxCell id="h3eBN5jXIzi2TajNPJDc-57" value="teams" style="text;html=1;resizable=0;points=[];autosize=1;align=left;verticalAlign=top;spacingTop=-4;" parent="1" vertex="1">
          <mxGeometry x="614" y="305.88" width="50" height="20" as="geometry" />
        </mxCell>
        <mxCell id="h3eBN5jXIzi2TajNPJDc-58" value="" style="shape=image;html=1;verticalAlign=top;verticalLabelPosition=bottom;labelBackgroundColor=#ffffff;imageAspect=0;aspect=fixed;image=https://cdn3.iconfinder.com/data/icons/social-media-2169/24/social_media_social_media_logo_slack-128.png;strokeColor=#E6E6E6;rotation=0;" parent="1" vertex="1">
          <mxGeometry x="590" y="329.63" width="20" height="20" as="geometry" />
        </mxCell>
        <mxCell id="h3eBN5jXIzi2TajNPJDc-59" value="slack" style="text;html=1;resizable=0;points=[];autosize=1;align=left;verticalAlign=top;spacingTop=-4;" parent="1" vertex="1">
          <mxGeometry x="614" y="329.63" width="40" height="20" as="geometry" />
        </mxCell>
        <mxCell id="D7jLhB-Sf2nQJdKgWZTN-57" value="" style="shape=image;html=1;verticalAlign=top;verticalLabelPosition=bottom;labelBackgroundColor=#ffffff;imageAspect=0;aspect=fixed;image=https://cdn3.iconfinder.com/data/icons/social-media-2169/24/social_media_social_media_logo_slack-128.png;strokeColor=#E6E6E6;" parent="1" vertex="1">
          <mxGeometry x="940.75" y="173.5" width="58.5" height="58.5" as="geometry" />
        </mxCell>
        <mxCell id="D7jLhB-Sf2nQJdKgWZTN-58" value="" style="shape=image;verticalLabelPosition=bottom;labelBackgroundColor=#ffffff;verticalAlign=top;aspect=fixed;imageAspect=0;image=data:image/png,iVBORw0KGgoAAAANSUhEUgAAAOIAAADfCAMAAADcKv+WAAAAeFBMVEVVWK////9PUq36+v1ITKvP0OdSVa5OUa2DhcLFxuHLzOWZm8xYW7Hy8/lMT6xzdrxGSapCRqmwsderrNTv7/dvcbqIisXU1em3uNq8vd2Tlclqbbjh4e99f8Da2+yMjsbn5/NeYbOXmMujpdF4er1eYLI9QadlZ7amwmOaAAAHzUlEQVR4nO3da5uiLAAGYEPEMiUoTS1LG5vt///DV3ROeURDE1+e69r9so5xr3KSBrXVW6Mn1j6+6aN+hjbq2dviGvv4DAg0gbk8ousHJ48QiAHSWMCSiPo13O5s+IPTlkTUo026til5xi2FmBiH483MKh2q6qQnuv4+9jBrURpwMhMdP9x6ZrnSLYSoR2F6sbPm0uTAyUbUk6xF0bLOADRVOpmJibE/nvNK18smB5F142dK+CqdbMSiG38NN1uik3XjF62+G5efmFhZN45ZiyIENy9iPjGAnd24nETHDz48JKLSzZDoZC3K3abj4d5JzCcGGhTWosyLmFhZN84q3QS4yYl5N05GrHTvJDrCuvE5Elk3bmbd+HT35eREwd34HIkziCIqoiIq4kRRREVUREWcKIqoiIo4S6JjpTuEsineJfVF4N/NY3ki+uufGSwyIY6vSyO6O/K8uAWI9yryTaqn/BI3uLp6h2i8HGJ2CWv/3bSTpRAt2nAAMqOFEA3YdAQiLxinpDSlm6gh4C6dqIHz4oka3C+eqBFn8URwWjxRIx0tjh5d/WtUvdYTKVrDScRttdHY3gghMPtjnzbPg/eJFK3hJCKvyeekGvlZfEIA4tPf4dD4gO5wEjXaMLVKqVk+47/YkZII/TpgdMN154QbGYk4qBGGtGF5lG4lJJppVXhoGrpnFz2Wjwi2FWHQLMyMJ/mIH2Wh0SbMetK9dMTyjep0/IBGr5IRK33/uutLzOghGRFaz0K//TbNfySUi0hLg1SP5xckpCKi0vf1ou6LmF3GjUxEs9RnbHl+nQDtZCKS0jPjB9e3vqAupIwvho+ISk9v3PqHruVAX0gZa0uEEADArHm8XQnng41Se9rVOH0FB1yH8YSRTBNjyKalFKKbd1/H20MYdxu5iFmlek5QN8GoOfmWE1D9xPwiMVFGgiayH94l3qb7cONfI/fPxG7fXRIuIik/9E/Lk8SGgsb8IsRuu6+LRLKLdDmetodgY/mR6zbMVQUSaVg+MVeDmpX8wnUUsD8fO3bb7UPLvyZtopGIsDrJEEkE6StrtUKIpGb9jfNGBTw3qnl4QdiH6P9rmsDXzIVXIV9zY6ZzIq6SR911BOXh99d/CGenEc6KyJ5TlC8koMf6euLwdf3kOjPiKroT/KtEmKwbVxZ5JhpsqjE3YjYw298xgSzUvAQtazUcZ2atzQyJLIlvGIbfsYbh8EymiD9TIl84xobsyYbMxKS7wWFjd5mJq23XucF9JTlx9dnRqEJ3VKLuJEnkGz0mU/3TcavSfMwgjuhuNsEh3Z7ii/ewTVIEwh5T4gFpfc5Ii2UeHmL+hFZ33CSKrsYmDPZMcrwbz59m/YMYm9kkEvXcYuOl76MaTQtTmfDryTJPEWwbEEppcVUgg5gZhWyeP8ziGzMKJq6uqH7GgX4WGIcWK39COQfiSl+TmgsJzz9PCeQnZhXyXEIiCP6sti6BmH327veryACTx9Ny8jKIWXsexh6ClJjnY1B6kDUnon/edcerrKN2ZU5Eg6DumGupiTxnAIqoiL2iiD2iiKWDFVERe0URe0QRSwd/E3WHM0OL9X7iiUKu8K3R1ebdRM5VYs0eWqwZEPlWiRWxNYrYI4pYOlgRK1HEtihijyhi6WBFrEQR26KIPaKIpYMVsRJFbIsi9ogilg5WxEoUsS2K2COKWDpYEStRxLYoYo8oYulgRaxEEduiiD2iiKWDFbESRWyLIvaIIpYO7ku8DS2WNES0G1osaYjgY2ixpCFy7c7QkPK2EDMlEndosbKb/P6z343j6NwbJdVkTCLyXtlBLN/j52vXIs1+8G3oVZcxiUTcPnC9f7v2T0YkoptUu/l9HdyLSP2lEyHbC+jl8gnIaEScH/t6AV/PWERcbB0noIQvZyQi+TpSRBFfzShERL83lRBTyNcyAhEREb/XLy7CiYg8/owuxRV0eMQSESaXp+0/hJZ1YMQREYDkfCjtWSW8vAPSj/i9d+EHBH+CMSTUvqdWdU+u0cvPkX7E7w0og/XxO/FHegiNmheiyEnElV1EuzJ6+TnSi9j/vWGjl58jvYior1A64oBXMY0P6E4fIu3/wsnxAd3pQWx+S9FiiAMuomREPOSlaFMQusJNBI8BQqmIyB708r5pEO3hJAJ72Js0J1K0ho8IdwM3GpuK0RYeIiB1e4cviAjoffiriaekNKWDyHbWfuUl2hNravO7wT3B4GlpBCET0kcw/IW9cyOuVlGw/sQ036A0X/H6vKTW0Le8zpTIoru+tQnDjXVNBOzVOEui8Lybx6KIiqiIijhRFFERFVERJ4oiKqIi/j+IP68wWC4x2qQXkxJsvg86NjH/27mG251NIH7LFZ2EWMT1g9OZTA+dkFgksfbHM2RvqV0sMY+eVdG1BsvPNZdELMKq6N2mY9+57yR+Qf3gw0MjVtH3E4u4xj5mbZEpHjoXYpHEOqxvWPBwYV7EPA4bLmhUWFs0Q2IRXdhwYbbEIvlwgb4GnTmxSGJkwwXM2qLFEvPoCRsuENYW9bui8hCL6FGYXlgV5R8AykYskg0Xtp4J+aqonMQibLjg4c7hgszEIolxON5MNnVpgMpPzJNPXez64cJCiEWK4UK5ii6KWIQNF7w/TxcWSCyST10Aa4vMpRLz6Im1j2/jEv8DQt2uA+KoDD8AAAAASUVORK5CYII=;" parent="1" vertex="1">
          <mxGeometry x="939.34" y="100" width="61.32" height="60.5" as="geometry" />
        </mxCell>
        <mxCell id="D7jLhB-Sf2nQJdKgWZTN-59" value="" style="shape=image;verticalLabelPosition=bottom;labelBackgroundColor=#ffffff;verticalAlign=top;aspect=fixed;imageAspect=0;image=data:image/png,iVBORw0KGgoAAAANSUhEUgAAAOIAAADfCAMAAADcKv+WAAAAeFBMVEVVWK////9PUq36+v1ITKvP0OdSVa5OUa2DhcLFxuHLzOWZm8xYW7Hy8/lMT6xzdrxGSapCRqmwsderrNTv7/dvcbqIisXU1em3uNq8vd2Tlclqbbjh4e99f8Da2+yMjsbn5/NeYbOXmMujpdF4er1eYLI9QadlZ7amwmOaAAAHzUlEQVR4nO3da5uiLAAGYEPEMiUoTS1LG5vt///DV3ROeURDE1+e69r9so5xr3KSBrXVW6Mn1j6+6aN+hjbq2dviGvv4DAg0gbk8ousHJ48QiAHSWMCSiPo13O5s+IPTlkTUo026til5xi2FmBiH483MKh2q6qQnuv4+9jBrURpwMhMdP9x6ZrnSLYSoR2F6sbPm0uTAyUbUk6xF0bLOADRVOpmJibE/nvNK18smB5F142dK+CqdbMSiG38NN1uik3XjF62+G5efmFhZN45ZiyIENy9iPjGAnd24nETHDz48JKLSzZDoZC3K3abj4d5JzCcGGhTWosyLmFhZN84q3QS4yYl5N05GrHTvJDrCuvE5Elk3bmbd+HT35eREwd34HIkziCIqoiIq4kRRREVUREWcKIqoiIo4S6JjpTuEsineJfVF4N/NY3ki+uufGSwyIY6vSyO6O/K8uAWI9yryTaqn/BI3uLp6h2i8HGJ2CWv/3bSTpRAt2nAAMqOFEA3YdAQiLxinpDSlm6gh4C6dqIHz4oka3C+eqBFn8URwWjxRIx0tjh5d/WtUvdYTKVrDScRttdHY3gghMPtjnzbPg/eJFK3hJCKvyeekGvlZfEIA4tPf4dD4gO5wEjXaMLVKqVk+47/YkZII/TpgdMN154QbGYk4qBGGtGF5lG4lJJppVXhoGrpnFz2Wjwi2FWHQLMyMJ/mIH2Wh0SbMetK9dMTyjep0/IBGr5IRK33/uutLzOghGRFaz0K//TbNfySUi0hLg1SP5xckpCKi0vf1ou6LmF3GjUxEs9RnbHl+nQDtZCKS0jPjB9e3vqAupIwvho+ISk9v3PqHruVAX0gZa0uEEADArHm8XQnng41Se9rVOH0FB1yH8YSRTBNjyKalFKKbd1/H20MYdxu5iFmlek5QN8GoOfmWE1D9xPwiMVFGgiayH94l3qb7cONfI/fPxG7fXRIuIik/9E/Lk8SGgsb8IsRuu6+LRLKLdDmetodgY/mR6zbMVQUSaVg+MVeDmpX8wnUUsD8fO3bb7UPLvyZtopGIsDrJEEkE6StrtUKIpGb9jfNGBTw3qnl4QdiH6P9rmsDXzIVXIV9zY6ZzIq6SR911BOXh99d/CGenEc6KyJ5TlC8koMf6euLwdf3kOjPiKroT/KtEmKwbVxZ5JhpsqjE3YjYw298xgSzUvAQtazUcZ2atzQyJLIlvGIbfsYbh8EymiD9TIl84xobsyYbMxKS7wWFjd5mJq23XucF9JTlx9dnRqEJ3VKLuJEnkGz0mU/3TcavSfMwgjuhuNsEh3Z7ii/ewTVIEwh5T4gFpfc5Ii2UeHmL+hFZ33CSKrsYmDPZMcrwbz59m/YMYm9kkEvXcYuOl76MaTQtTmfDryTJPEWwbEEppcVUgg5gZhWyeP8ziGzMKJq6uqH7GgX4WGIcWK39COQfiSl+TmgsJzz9PCeQnZhXyXEIiCP6sti6BmH327veryACTx9Ny8jKIWXsexh6ClJjnY1B6kDUnon/edcerrKN2ZU5Eg6DumGupiTxnAIqoiL2iiD2iiKWDFVERe0URe0QRSwd/E3WHM0OL9X7iiUKu8K3R1ebdRM5VYs0eWqwZEPlWiRWxNYrYI4pYOlgRK1HEtihijyhi6WBFrEQR26KIPaKIpYMVsRJFbIsi9ogilg5WxEoUsS2K2COKWDpYEStRxLYoYo8oYulgRaxEEduiiD2iiKWDFbESRWyLIvaIIpYO7ku8DS2WNES0G1osaYjgY2ixpCFy7c7QkPK2EDMlEndosbKb/P6z343j6NwbJdVkTCLyXtlBLN/j52vXIs1+8G3oVZcxiUTcPnC9f7v2T0YkoptUu/l9HdyLSP2lEyHbC+jl8gnIaEScH/t6AV/PWERcbB0noIQvZyQi+TpSRBFfzShERL83lRBTyNcyAhEREb/XLy7CiYg8/owuxRV0eMQSESaXp+0/hJZ1YMQREYDkfCjtWSW8vAPSj/i9d+EHBH+CMSTUvqdWdU+u0cvPkX7E7w0og/XxO/FHegiNmheiyEnElV1EuzJ6+TnSi9j/vWGjl58jvYior1A64oBXMY0P6E4fIu3/wsnxAd3pQWx+S9FiiAMuomREPOSlaFMQusJNBI8BQqmIyB708r5pEO3hJAJ72Js0J1K0ho8IdwM3GpuK0RYeIiB1e4cviAjoffiriaekNKWDyHbWfuUl2hNravO7wT3B4GlpBCET0kcw/IW9cyOuVlGw/sQ036A0X/H6vKTW0Le8zpTIoru+tQnDjXVNBOzVOEui8Lybx6KIiqiIijhRFFERFVERJ4oiKqIi/j+IP68wWC4x2qQXkxJsvg86NjH/27mG251NIH7LFZ2EWMT1g9OZTA+dkFgksfbHM2RvqV0sMY+eVdG1BsvPNZdELMKq6N2mY9+57yR+Qf3gw0MjVtH3E4u4xj5mbZEpHjoXYpHEOqxvWPBwYV7EPA4bLmhUWFs0Q2IRXdhwYbbEIvlwgb4GnTmxSGJkwwXM2qLFEvPoCRsuENYW9bui8hCL6FGYXlgV5R8AykYskg0Xtp4J+aqonMQibLjg4c7hgszEIolxON5MNnVpgMpPzJNPXez64cJCiEWK4UK5ii6KWIQNF7w/TxcWSCyST10Aa4vMpRLz6Im1j2/jEv8DQt2uA+KoDD8AAAAASUVORK5CYII=;rotation=0;" parent="1" vertex="1">
          <mxGeometry x="590" y="305.88" width="20" height="20" as="geometry" />
        </mxCell>
        <mxCell id="D7jLhB-Sf2nQJdKgWZTN-61" value="" style="shape=image;verticalLabelPosition=bottom;labelBackgroundColor=#ffffff;verticalAlign=top;aspect=fixed;imageAspect=0;image=data:image/png,iVBORw0KGgoAAAANSUhEUgAAAJsAAACOCAYAAAAmenqkAAAABGdBTUEAALGPC/xhBQAAACBjSFJNAAB6JgAAgIQAAPoAAACA6AAAdTAAAOpgAAA6mAAAF3CculE8AAAAeGVYSWZNTQAqAAAACAAFARIAAwAAAAEAAQAAARoABQAAAAEAAABKARsABQAAAAEAAABSASgAAwAAAAEAAgAAh2kABAAAAAEAAABaAAAAAAAAAEgAAAABAAAASAAAAAEAAqACAAQAAAABAAAAm6ADAAQAAAABAAAAjgAAAADpl9LAAAAACXBIWXMAAAsTAAALEwEAmpwYAAACaGlUWHRYTUw6Y29tLmFkb2JlLnhtcAAAAAAAPHg6eG1wbWV0YSB4bWxuczp4PSJhZG9iZTpuczptZXRhLyIgeDp4bXB0az0iWE1QIENvcmUgNS40LjAiPgogICA8cmRmOlJERiB4bWxuczpyZGY9Imh0dHA6Ly93d3cudzMub3JnLzE5OTkvMDIvMjItcmRmLXN5bnRheC1ucyMiPgogICAgICA8cmRmOkRlc2NyaXB0aW9uIHJkZjphYm91dD0iIgogICAgICAgICAgICB4bWxuczp0aWZmPSJodHRwOi8vbnMuYWRvYmUuY29tL3RpZmYvMS4wLyIKICAgICAgICAgICAgeG1sbnM6ZXhpZj0iaHR0cDovL25zLmFkb2JlLmNvbS9leGlmLzEuMC8iPgogICAgICAgICA8dGlmZjpPcmllbnRhdGlvbj4xPC90aWZmOk9yaWVudGF0aW9uPgogICAgICAgICA8dGlmZjpSZXNvbHV0aW9uVW5pdD4yPC90aWZmOlJlc29sdXRpb25Vbml0PgogICAgICAgICA8ZXhpZjpDb2xvclNwYWNlPjE8L2V4aWY6Q29sb3JTcGFjZT4KICAgICAgICAgPGV4aWY6UGl4ZWxYRGltZW5zaW9uPjIwMDwvZXhpZjpQaXhlbFhEaW1lbnNpb24+CiAgICAgICAgIDxleGlmOlBpeGVsWURpbWVuc2lvbj4xNDI8L2V4aWY6UGl4ZWxZRGltZW5zaW9uPgogICAgICA8L3JkZjpEZXNjcmlwdGlvbj4KICAgPC9yZGY6UkRGPgo8L3g6eG1wbWV0YT4KQGyP8gAANptJREFUeAHtXQdgVFXWPm9mkpBCaFKFgIB0BYniWtBQRN21YEFd1ooFBVbXXXVdERjArqu77oJYQdF1FdsqFkowCv4qEgSpAgoEqaG3lGn/99337uQxpE3ykkwwFyav3nbud88959xz7zPkVxNChmSMd2egvllZXn8x1TZa93+olcslJ4SC0sYwQu1EQu0MMZoFRRoaIk0QpzF+9fBLsI44SD5+BdZxd0hkl0tkb0hCO0SMDaGQscFwyaZgUNb/Mu/BLXgPrxwZMjK8nizeyhoXQJyjnh/5du29Ag2P5eB1SYag7REiANb2/IdbBvzBni4JnSEho5e4jE4SCqUZLk8SfmhzizQhtj2gw2MIWMCR/3hUAe/xn3rfcOPAeNY1X+D7QT9/h/EwR4KhNcDTkqAYX7s9rqUbZ43eqtLRfwA8dZolwLgXv2MnWBQ9diqkahJusCIO1vmsx+vnJRaeDpwMwjsZ+HU13PEpClhgZaFgALggw+MFIIEzgIhQ0bDDHQCXFAupvxbtwInUa3xMgPBxRFyDgDdchuHBXzdPTQAGCg/i1VX4ZSHF2Yl58d/++NVfD+DaDMXUQz+qjcdjB2xeryv9oy3u7OwXfLoh2mV4Gwbd7oFo/SFozAyAqxkbWwEL3EadACAABwFFDkh6VBVNiEHywyAy4DmA63IT7OEyBQp34EkWYPm24fdnbsjy7sV7KqSn3xaXfXGrgHhrL7erKsJqGlX9sRiQtR3wcL+QEbwJDXehy1PvOOInFChES4N9Ke4D+c0ElznEVn0pS8qBnBA/JaeB8wF87njcAmv15+9EsT81Qq6pGzNHf64TqM2gq71gGzLEnZHb3dDCfqsM73Fut/sGI2TcaHg8PcgxQn4CLAAWpoY6sDTFvXS7xd7RAPBCBgVDiH5uj+GJN4fboH85ZMZpgUDg1S1Z3p0seAaViqYrQjJjBjtQrQi1EGwYLtOLhss2/Sd2AHsaCV51kysuqWEo6AMX86EBDHCMEASkGAdYyTAhxyPwXIY7DsNtnAR9h/ei20zFg0mb5o35iVEVp8vG8FoLlInaBDYjPf15T3b2cCWTpQ30thdx3w9udTNA5gr58zlM8hmHRoLsWAoAE2Q9IM7w1CPooMzKyyKBx3Lmen9mRUGbONBGaTixWvHaATZqZZbpouOFjzQt8PnHYqS53R2X6An68khbgqw2c7Hy4gNMTQi8OFdcogR8eX5ICFMS4jwT1n36QK5KxEar8iZaXe/FONi8rowMcWm5rM3AiXdjGPGCk6WaIAsBZLAnAHnVRbDYyIcKBe00hgIdON1+UMC7ae6YZ1g+Jc9lUfGILc01ZhvJlEVMM0bb/hP7g5j/Bsi6QksDOYOQ/CUOJzFbfjZ6NQRa/NDhXPHQujm8rgIMR22cN2Ye87bTsBrKUmYWsdhYYdms+aAnkxMCBU9DMbuNNYHg7wNxY1+rLJPsDr+gtFgJQJFgBwSd/C8UuBP+vH32vYdiSZaLLbDZ5I20AePPQ499FdyspRKIlT1KzKkch9vqGEqOCoKLChNohmmw4A05mePmqPrZaFtT9aXmFhOBPVArAWkDJj5huOvNhq2MQCtEAVnOOqCV3VKkEYFWSNqRhqSligYFS9G47DSq7I2Y4Gzdh3jjV8zwFrY57/FWRrDwA1dc8mkgGLQuzuocc2aMKmvMiIRBP0zKxiW5g75D34Vc8YM3zfnrFk3riHer5bKGwQaxH24/5GhpAydyDvNdlychNegvADczIH/82rRMp9tcaa0+0DQeNN0P7F2RM3fMXFFDavW7M9XcMIo5TUVaAm3AxLtgr5yDKRoCjTYzTBDWAa3y0FM0JNB8pC1pTFprcQWT+tXa/jXD2Ya87ZYZV9E4KTBrPG3EJ94NuxnHTBotjzXrP6sZC4H0hvKQaIQK856BeeTPqlC2tqjqQlY/2GxaEXrZDHd88pWBwsPgZiEKt9VfnqqmcGyljw5t+N3xSXGBwkPv5GSOGaKKZ2uTqixu9TaurVJpAx6ajV52nqlt1slnVdnIR6ZtyXFxSfEYTebkZD44qLoAV31g00CDnJA23/0FtKSzUVn47ofoz18Xqp0CRgE6ewI6+4KcvoFzlVOmbqMqKkv1CIjwPdNCKYCWVQe0KmrNqJINAWh5AFzS2WwTFZXODmyrKgpVDzZqPJaDX9qACZ+hcn3rOFoVtWbUyYYB15dto6KzrapIS61qsMEXwaRA2wET34Sx9nxTRqsbOqPGRZVFIOAOF7Jt2EYqG6/667iIVWUsUxWXMsAGbwC95nFXfMpwE2i0odWFGKOAG36nha745J6pbc9K2rce86mq7bJoinIsVBnYOC2S+4nXB7ftO6BqPwKg0f+qzrzhWNM5nZDhwqKgAMWc+ml9d+z/fNxC1YYrs5Q91IncHGeVLJTl1uJrM2BCX1gRv+QiXVjQuB6zqodtJ2jy603DaiMuFgoGfedsyhw7X7elE0RxHmyWRZqrnTxu92oUvAnAxt5RZVzUCULUpRGmQABthmHVv8sfCHTZwtVcDs0yOM1pDExDqXHe43a9B+9RAo0uQnVAC7dlzJ8QaIVsO7ahKq3ZppVmTI6CDSyXMlkorf94rBNI6QsXbgKtTiGIeXwdVUBM3udDQ03py7bE05DVtke9GM2NSqM1nJllfW7b/6Ezxe3+CvtmcMEt0q/z3gjTqFadYFoLe5hgfxKXBAJnbZz34P+ZrklF+6dEWx2HwEZXFazkAeDSKKe54zpgvQBdlMnp6kLtpYAfbelBW/6UA/nNnAWy2roCdXJkGE1Pb6lksjYez6NQnQk0Dp91QKtAg8RYFAINw2lSB7Yty6bbuiLlrDxns4bPNuc9dKor5PoOe2vQjQVliW74VA7gFalBXZyoKBB9gysvEWzz5DaCRvC0TXMeXFTR4TT6vI+sGuITJkYIvmnfutwJfQKBAj9uRsXVmEKix5CkOJe5f9WRedRdVZICpK8LjXLYF5Q8H0SxKFsd8f1ud4InGChYCB+4001GohJh0uUOUYEiMlVqKNnZBmcJboK7Sh9MsPtQBKwdKH/g5mj1ALQ1Gw6L/MgFyCxSVHUof2a/2jcJDIjQnepJx7ZJko/Bh+Arb8CrBJqPbcy23jTPmFoRY28UWUYWjcOkETIXEuevxdZiLbH9GW1sUcmB8aj1un0+GXN5F+l0QjPZvfeQxHkgArJkxJw+RmZf3LV+t6Qj40Q+i0xHPy/uXfszHa+4e/qZPQ37uY6jjyW9b7+vz+1x9HnkMeJdH2zqjRsmy5r1uTLxvVXSsUGcFKq9NfWL5ToG0cYutPHWAne9E7kA2uJw5eYMFeZs6ekvgKuJLyGQdx88Blpiy9gK2dQUSwe2tu08JCOHpUvzpg3KVfO6l6KjwI6d+2TBE+8qVhDtMGrl5II8TmWhZYLv0H24N05joLwlYZ+oQDDVX2tKah326WyAXeui5mrMmB2sfrxLVq3F9rJJHvl22rXSpzf2UsaDIDYFdUXD7ytQk2M1CmnHxnVh+/Pvvl8rfW56XeSAT7p2SpEDhcGohlEbjbBVFxIMBfdhKqvjFrUxYflNIVENeTpTrf5i7vPPQDqBxuV3FUqLWNqPynfvVF9aHxcnp6e/KO9//DXqhE093KgXiYauWPcrPw1IMzcwQaB98Ok36LwvSKvGHunRpb6idSX6L4EG2S2pAdueeNBY0Ngo7ajsY6W9cNQzeHFuffOeALkaKvM6WGsCRDd2ogpySaAUMfP9IakHbbR15yR5dvx3Ur9ZgZzaq4N4IL8FwDSx4exRRam7cTQFSCsCzYfNN//54scybOjHcvJvm6jOehCd2l1ZMnIL9WAAqYR6Jrc996U1X99zUHn2ZmWVKbtFzY24IzerCGTfCoSnKq7mgOsQAVcALWlfYUD6XNpc7hk5X+64f5rs3LVfEY9ErAulU0ADbefu/TLigWnylzu+lNNAS44c7MyV4GhFGbOtTe6WSgzwgcZE0UvFn0WJc1MD7XjhswkFhXvXwFctDSiH+5Dau7b4HCpw149hoFVKnCxaeUA6Y3h9/x9/kK4ntlFDKpMzP2xRgYSP0SjqgyAWXVav+0Wu+NMbsnL1Pjm1e6psOegTj+OjggE3JLcbPm85CfENO6379E6ukgOWaAAuOUTF2dLThyvttdC392p3XBKBxsXF0Q/FJZdHPSFxtoJIPbukyE/7CqTbWc9J5vylYbktGL3aXkaOtfcxaaHl2XkLfpCufSfLqj150qtrfUVD54FGWoXghhTwEQPEAu9obPC8pBAV2NRHH5AS5i2GgZXiTMlqJaVd7vtkr5Ql7N2CRNoJT/KO9eOka+9kGXjOa/LKf+aCu1HDgktp3bCqaEBakG5T38yUAX1flS49k6VLarzsAO3sQOM7pDFp7UxA2wMDCgtIUGOjtLTLz5XorTl5ZPD4fhN6Gm7XY3CwQ7qKP1eq/EyhAL2TIGpYzyN5kC1UqkidSkEh5Dhsky0duqfIlEeXSr5nl5zeu6PUS4iH5wsUB0cEkdJIFJvPWHdq6wcO5Yv3yRly78gvJP3ipnII01GUz9yaiCg+B4KG9dxyGLIbHovHEZrhU3JBzEy6jHb1Txjw/v6pY7cpj96VM4jrYkO5OVtG7koFKpTzWpcnkYlxCK0c0JBIAQjTPDlOkgG05ZDRmibjYxm24pJmAVBr+yE/hN1m8vg/fpAhI16QnM25itjkcPb3i63lMXSTdWWdCbRNoMHVI5+Xx/6+VNGG3MyvhtWiChNopOnyVQckId6jaE2aV6rhVPKq7bEdVyIktcB1vKUxUpT7kWflBZv5JRWslsY3vgbz0zwI5Y17ZI62KzeQewicyw3+/uGz14t3RC/5/qNt0gzEicMzEkoThZ1x84FC6X1mQ5m1fJe0vXQSjJVrlC2JgKQR81gPylALGZz2s0VL1kra4Eny6dKd0vvshoo2mlY8knakYfMUj6Lp2Nt7ysx/Xw9TErghuSIJWvnAFVmwicpgrqTP4or6oiY7KvXyASbDq4bbNrtPOdMw4juCfVJgK/8QfFS2RTcaxhmyeHehtGzeSMbde5W89PpFkv0RtvQHeBokuISaqQ5xQNU2KA49WiZK24YeGCtflPdgAGbgkHssy3Gsm2lrNJTR+7RTXpC0Bm7p0SpJ0YS00YE0I+0oBWd/mCsvTv+djL/vamkFGv+wu0AawZ7pUOB6BUg58R2JDZWmhZXi0i9XrukHtqiaGOK/Ep6bTIerpRwJ7IGtQZh8bjaJcPMfBsr8b26Wn7YVyort+dICJhAODQz8S3ljb35A8IEd6fm7xnLFRTPkyX9/IAWFftXjKcsca8GUTV1SCOfnpyb9Ty5HnU/+bWNJwFBKWpAmukuSVi0glpB2P20plPlfD5Nbrj1PkaQA+yy2guxmkdMpMnGXcoxAwSuZoMZKcYmXA2whw/qsIms0CJ6bSAeM08FAoZVDAwMJe/bp3WT9J6PktycdJ9mz98jx0EiJdk1QjgA0AO8tMA3A9/3xK7n9r1MlF5PNlGWUHKdSq/1/tHyWu2ufquO9oxYoozeN33ZXIU2b41PjJHveHrmgRxPQcKSc/ZvuiqakBJUpNSY5ShYubqb4HuTWWxZWipflywbNkBnqndYDHj4JGOtiToOGyo5XwQrRZkRLeLs2zeTtybeJd+Kp8t2HO6QRemQ9cDNgTAFPgQ/nv+wvlPRLmsi0TzbI6ddOlpU/5pjAxVCijZ0VLEqNRmPZ+WMnXLVmk5yJuk2duUHVlXXGozAdSJME0KZxolu++98OGTs2XWZMHi7t0porWtqN4GqIcrRmIbgdAWzAhsII07YwE5lNmaBJ/3muescwggNccfw8uqFYW2RCjl2DGpzbI+CSk+rJuHuGyNv/u0KWfLwH3goBaQKC2uU4DiHKAAxvhu2HCqX76c/J3C+WhA2dtdEAbDfUzv1yiXT7zWT55WCh9OycYhpqydqtQFqQJvTCXTJzt7z1weWQz66SlOR6ioakpUKljuD8kdMGfmKDGGHyGjORWZUJtuz2A5UQhBT7q+4UmYIT1yhtZCCRNFCGXHIWtK/bZBvMOj/8fMiU42xxKBzTAJwG+a7rGSlyXsZ0KBpzlGxS2wzAShEAmMi5Xn5jjpx37nTp2idF2qFurGOkIkCZ9ocNh2RLfgja+W1y1aVnK1KSdgpouCqCZiSVnbnm3DwLrDCCJDVmIlMvC2xc4R5ofcbTNKz1soZQR7TQIwpio4btVMkYHErYAOk9O8qWd0bJdee1gYa1C3KcRxku2SjEHY2YhzjhDNXl1Euayq3XfSb3T3xD9h/MU0NRbVActCJwAGX+60NvQLD/TNUlH92ddWMdWVfWmcyNsixpMbRfa9n83ih4yZxoyqt4oXqN3Zy+4oAnvRRWzM257U3JZ2XYyoa8rcDoTj7YBWNya8yHsa5lAVQlHNUfpmoF26m6Q3mDcgsbguaRF5+8Wf7+3DlKNkmC2YSLZFSp8DZexdARgimABuCm8uSkZXLF7c/Lhk07ihQHtlSMBbND0d7oko0o6xV3PC9P/muZMtSyLqwT68bAurLOKfhRPnty0tny8lM3S6sWja0ZFXx6Xr9sRqmOv3QXRyFdrRVWmKOFHXvmpQIn/ec96jnWRffBhxsQz6DRzvlg6wO20yPy0VomreB/vv1i+WTOUFnxxQFZD7tbM3j42uU49vrN8ErtfXpDmbtqt5xw0ST5NvtHBVo2hB6ej8ighi5MQy07lCELF/8o7S6ZJHNW7pbevzENtayLDqxjU9Q155BPls/ZLzNn/V7uGXEppu7wlWVwf9Ko5oLhJ0aIFZZBY8denlJLV7/+VpMNGKFe9khOn9uZTWl8hxyOjUNOcOHAU2XF4jvkxEb15Ptl+5VLkt1+FDYAt0iU9s3i5DenviTvfPiVKnqsyHFKPrO40DsffQUv5ZfkBHgr90CZaby2y2esG92ulizfL+0aJMiyZXfI7wadpsZU0kSbjpxum6jTs7ASxo4tgdLAhikqfnIGIWR0c9LLw5a/OrV13shHR10rK7riTkHp1jlNvnhthPzx2s6yCJbyFpiaoXbKhiFotQGY4OoFA/CQS9+Vx559X2jc1EPzURlU0w0tnxUU+uTxf70vQy55VxmpOY1kN9SyLqwH67bow50ycmgnmT99JFy825ryGWhhzixUU8FLzMb0AlFYwTsWdo5o2lLA5sWLXKp3TzLidsCYjIPVDUvMsHoesAYaLE0a1ZdnJlwvL7x2gQIcP0bKqZqAxS7RTsoAvAeaAz2A/3bX13Lrva/I9ty9YTmuekpdlIse8rji6dZ7p8r9d/6fKhtBRmM1y8xA+SwVdYEJTdXt+VfPk3+irqyzBqv1qhmhRv/SC0Txpg4mZmgRIYaKQslgG7JCvRgXatAKr7dQCZlrDYpiO3DGTMiFKhJMOY4qvgHt8zzJWnCjrF2fLytyC5R3g/KAQMI6D9MA3Fimz86R3kMny/LVGxVoOSzzV9VB58OOsmJ1jqQPnSTTZ20sMtRaZWV5WXY6JKzcWSBr1+XJvPk3yG3Xnx/uIDUrnxVDKWDDAlsLCzNQEkwM6bdLBltudwU2QKEVPrDlBpOztsDSUZ05sont/NLKtNyJc4jUjXjuWSfJT3NHyaAujWTx55jmghMh09cwChuAO6bIYQylJ/V6TmZ//r3S3kzFoermVcnNmAd/c7K+lx7pk+VAPryRURYapVk2Bl1elv37L/fKwE4NZV3mSOl39snhesaMfKZKbP3h9mjAiMIKMKPuhjFkvlMi2DKsNFwBVxr8zUkFtETxc17WqxU+RAuwyIx0I3LWoX3bFvLOlOHy4OjeMA1sV1M4nMrhkMSgPIDz/NI8KU669UuV8/tPxxA8WykeamhGGk4HlotpU5B/cfpsGdRvunQ7p760QBl25mEi3eptlM9YVs4IsOx/u6+nvDfldunQrqWSz3Q9nS6fM+lRZoOfK7BCzDDNjIiESwTbAe3pYYTawX7CaJpBRCQRO5d6mqt+cqJMvP9qefPdwWoKpwCzz2xADTgaR9UmK3AiPPWSZjL8hlly7/g3ZN+Bw+ZUmYOeI5StWK79SPu+CW9gKJyl8gTeVRkojzGwbI1QxkKU9fuZu+SNdy6VRx74vdRPSVTTTjHJzcyi2//S1gbuDcwgaAzpF0oEm34BzkrNagHOdHFVw2o72jWXnwPb1a2y6XBQflh2AIZQU1Ply2QmVCK2wmjKGYenp6yQy4ZPkQ0528NyUWXkOIqAWhHYsGm7DB7+PIzRy1VezJN5WwxNac800i5bfkByDgblm0W3ytArzlV1sk87hSsZ0ydkb8TM0aFEsGXXb2VxslCTo6M5e6eyw2hkabQcx8Y+7ZROkvPuSBn1hxPlxwN+tTWX/X1yFspMvfs0kM/X7pUTfjcJjb1aDXsctjRw7XHKOmccAonciGkxzc/X7EEeDVVempvpdLhd2I8wQo/8/Ymy8b0RsLd1Ns0aACTrUvuCiZkiDJk1KBFs0nSFAhuUjMaQTDmGVlmtdQ93kqgEChvbB4fDNq2OkxuuwgT1/x1WUz1WLwpnR5mJRtTuTetJ+xbxcsZpL8mM/y1Qz9nYBG15A9/VAGEaTKt983jp3qyeykPLZzo9loXTTyzbdUPOlLTjm6oys+ysQ20KCiPk2MQMg4UhXYeSwTaju2oTwKxBiEu2dIwqOFIwropAeSkuziM/bdgqA+9+S1pkpAi3IIisC7OnNrivwARKr981kasGvyeP/PM9eBCX3wCsbV+M8yjiMg2mRfAxbeYRWVWWhWU6vl+K/ObOt+RHLDJmmZlWbQusC7FCzKiyWxjS9SgZbDJO0QUJ6K3lI9tIpxGTR2qAtEXReHvZH1+TfXA45HI2Gk1LCsCCer7bMgCP/tM3css9L5fLAKzlM+bHOA8gLo3ITMtuqC0ubz5PiYfGj33UetwyLbxyrBYCTmEEfyzMmBjSdS4FbLQAq4BFB/pUR3P26HTqquExDO3dd0iu+/M0WbbxoPTEIhk6XxJQDMyTslMyhjBu2cX7vGc9ll+wkiv9ksbyxtxfpPs1k2TZqg1qWNY2PabBoK857C3HOz3wLuMwLtNgYJpMm3kwL+ZJQzRGHBV4/yCcH09qUk/8mGQfPHKq7NhpznDUPsCpSqmFKqi5VUOrnuahxL+kSJyJNd0MJb5b4QdOpmzKTC7Jw/c+7hr7hsz5aof0bpcsuXA81At32chc5saw6ufDsmLlQWXfoo1LD+mcBN8Kob1nB8zWgeOc3G2KfDYvW8lRWnEwFQHTUDtr3mI5qfsUCeFdxmFcPZGu7Wd0a1+x6qDKk/vPxdvyI/B3wR7SqwUcC34+INfdPU32oLOQO5NL146AShBexExRvw0XvRTOFn6nyk+cAhsbnxzGD3ln7BNvy2tTfpL0k1JNDwoLXKwMlk4qcK2fu1++ffM6+fily+XHWbnohyE1F6lXc1HGotH1uESPdLsgVS4c8IZMefUz5V9GOYw/+po9/+osuWDA69Lt/FT1rjLUWvkxLcU5ke9q5DHz+cvku7dukA2ZBxRnJeB092cH4ELjU9A5ZqOTjBo9XQ4dLrDMObUFcCXDpSywUYf3mWOLJknJiVX0iRNk5HCmtUAud3tq3BLpc2Fj2QIOYxfMqeBx8cyqz3Zhqmoo1p52lt/CXemrhcNl7cYCWbmnUM2r+qwxjhzHNADDjAID8B03zpG7x74m9KalFzDPb79xtnqWB4Ms32UcBqbRDMvqVu0tlDU/58mCb29TbkH0qM366lpZg5VjBCI1VMUQEEdrxqeik/znvxvkvof+E16mSK4d2wG1YN2JGZPHHVHcUsAWnpri0pkjIjl9UdnUCTRtJiCX+dtdC+DlepxyoOQG0TqAySjnw8Uzc+Xdj67AWoVeyqzBRjzztK6ybtYIOaV5kny/0vSP0xyOAKVescUyAP/rsZUy7C+vyM348ZxGYT7jO3yXgXFb0v8M2x70bJYka2ePkLP6dAvnd+6ZJ8EB9BpZ+nEuZg5g5jCjqb8sMzvJqWc1lMmPrpLxT81APJNr8xjbQdVE+YgDb/ZqlebiPV69iKqZUm4xSHWq0pUhn8WAVFHe+mA+uMws5U69FQZcchidNoHQCj779Ht76fXfYqHvmYhjgpRDLwVxzkHOmXqH3Hp5B7y3S1pjMpxBp8H0aP3veUFDeWdprvrxnPc0N9PvMi7XB9w8+ATJRJodT2hV5BaEKR12EDqAvo3VUIuxAwC3SdBxeSQ3JuD6XNpEHh2dDffvD1RZyL0ZN0aDKhj+WJgxMaTLWjJns9xDIP7uM0gcHaMqjrbEbaflyknZAMFOPs3Mlmsu+0B6Yyef7TDQaobGHmNyGY8s/F8uVs+fo1bdM3G2meaIShAH4Ogr9u9HboRD41l435zIJ6fRDAXGfiXHdWoYJ/yZE+lmUfkO3+X6TcZ97NkzwZlulCaNTf8z7RakuR9jDcFqqBenX6jWEzSHS5HijmZySomhezu59P13LpBJr3yqnrDMsQg4th2xQsyogkbrYgQvpd0cG2xMwiJFzR+05rng25WQu/4LT9fjZDcEeg1YAo37/dNdZxHWnd7/ULrcfcclquBak7TXgmBgmvHwqLpv1GB56/3LMZG/S3EtOjFqh0xyMW5LZW5NZabAZ9rRkXH++/5l8tc/Xoa0+FXio9cH2AHD7RGemdJfcd3WWNHus5DNeihuCi7dBzs4jbp5jkx/+/NwkWMNcAoj7AjEDEN5XYzCezaExIwYrmIVnBAVVrCd6lvFHjnscfhbumK99IXLTudBDbE3WTDMGZgOG43rKr9bvFeG3XUiFjxfqexbpvxTfE5Mk65ADFcNPlsWfDNM1qzNU4rDcVhswjTtMXU+fLaSisCaw9irZJhcPbivSqO09QF2wN01/CJo0KfLtx/sVMM9ubHOh1ya87fpUFCuv/ojeW8mdlO32KPuWCqzWPljYSaMIatcJQ+j+gXD2FaVCgIJqtrWolp5iEegkQutW79Vel0zVVr/JklJ5uQ0uoEICmqC368/KBcNbClPjxsaXoWktdaS2oY+/eQaBOVZ2HdkzdwRcnLTJFm6+qDiksgmHHjeCpyTz046LlF+nIv9NRCHcZlGWesDCBrFZZHig3dfAe32ZFmUaTp+kivr+vC4E3vU9b6oqVxx8Tuw+S1WgDM/PxEuTgycqDURwMzRoUSw1be8PjDVtdFc7BKu99GpVOIO2011UouqmrglJamBtnX7bskYPhVO+i5pgI0EydW0nEa5h+aNJTvypFvb+vLy49dLg9SkqPzCCAJlRwOwT2zfSjKn3S7DLjkBshU5jynMs+w8X4R7wy5uJ/Om3SGdOmhFwDT2llQP+33mw6GWn1F6CH5419/SAavb9ymubOekzG8v5li51fyFA94E112huDvjxkhAL8XcKDGDoDGky1Yi2LKsN4LuYI65/oCa65HTDzqRSh9JRSvYTvWt8FHLPrv3HpShf5omm3Pz5KRGCWgAbJdloRTMQFJhu+JOlWgJ+fi5m6RZ04ZKE9TbEYQTLMeJVhyOa5wqz0HYf/SfZyphnmtV+eNCYd577rGbhO/ozlCOpI94RQ3fAE1SYrw8O+FauWhAC8wkHFTcmYDTgefcyrTL+Q2l7xmvqU0BtTat36mZI7CB/kmsEDMsQ1ZEQUoEW5F7iLEFS+shdVPNsISZiEQqc0mMKFIW0bPY5Ag0EpUW9VEPvi5Zi3bJKW2SZRcs7tpth6Wjb5gP3Gjn2nxZPvUmtRtSRQGgCxJWHLBA+v47L5M337sMGxbuUj+e8148nunOoONFe1SgQT3JhV954gY5pWOqLNmWBy9jU0tleqQXJ+7Zsu0H1pfTBk9TOzfpThFtno69T2wAIworYmxR6UbrYuQz9jHiNnMdgvOcjRhTNiqLM1mHI2hgCvTwTcO84wOP/FfenL5e0rvVD09DMQ3+uEEg5zfXYbX4tzNvlO5d0ioNAF0QAkFrf9dc1lcyv7xW/XjOUJoioNMoz1G7tjc9roF8OHmYNIJtcAUUj8jliRQb4jHv1qRtgnQf+or8vHGbOY+KjlYjASqowgiwYmFGpPwuRl60X8jYPvspfOpPfjITcp6zkTBqlCBaiglKyLbGyMf++b48+/ByOa1fYzXRTZuWjkYWzQZZ/immobI4DdVJAY0gcSpo7ZFl6t+3p/rxXJVRCZ7O5KQAB9C0htPnwpeGSXB/QC1crg83JD2ikiT84FkL2OYEO5mddcsrsnkrzDScuK8RwGHjBS6MAlZMzHD2gBgqCqW1RCgjY7y5Y5ERWmkuenGes6mikJ1ZLM1eOjaiVvH/9dInMvaer81pKPimcdJav8sG4I7Y3+tpqHN7mQBwEGiaZCyPHXT6Wj936qhB0xHKydK3bpItyw4rBwN+CFh3eY4I3H3zZMit23bly5A7p5qfX6oRTxHKbIATsYJgYUc3kSJLaWDD6piWJgRCxhKniFhsOkcUyXyDQNPh9RlZcuetcwG0poqj2SfWqXm2jJyGssXVaTh9rCqQ2cupAAcZ7uRuJ8g3n92oxAO6Kdk9RSiv7qRr0vGJ8vXKvXLTva/CUdRcJaa11CJK2lOvonMLK2Hs2LIpFWzZ7RspAQBLsxYG/fg8kYTAs6snEC9s0I9mLZTrrvpQLX/jfKc1oipGSMMn5zu/4zTUJNs0FIrIuMdC4JBK0HARzNwv/qDEBO3syfoRSPSb2wHtO71Disycu0X+NO515c9HEYJxq4cSIQ8xQqywXBo7PNehVLBhI0AFtsChPathPNmMMZnldl4CjaAGCUTb0xdfLZNLLngb01BNldZpBxpNAApoH++Wvz2cjm20rGkooPRYAZpuJH5PlkrSgHN6yoefXY0tX3OV35x+rgAH4qhZhlMayLSXf5L7H/4vdheHZ7IVV79bRUcuTqaNbbPCCjOxsGPPr3SwsePgM0K/fP1MHk6XYGk94hpq9xB7Ik6e8zPzJNDiH9ZJxtmvS/cLGitB2G61J9A4DbUoe5/cfOeJMvYvVypwKpAeIxzNTlP2RVaLosXF5/dRC5izP9qhPEVAChU04JSnSP/G8uxDy+SRf7yr5DsOx1Ub+JU+YiO0RGGFn54idiJCmaXQm/FiK4dM1pjGlIg0Kn9pKxY/ZssVRulXvSpp/VOwyR/mOCGY6Uz1hniL1x+SiwdhGsprn4YqszqVL2sNpWDn1lzAPGXa+Up8oLxKuZX0IRmpoXPtAz1Fxt+3EIuvPwyXmOYZNTaF7zhzojBBbBAjCBozkamX2Tp6M95QyJUZ9OWzUpTbbPCITDL6a7ppa3V94y87pMuwqdKgmUeSoepzIYhmViRqE0xNLc3Nlx7tUuRFTEOl1sc0lMUNo8+5dsUg4LTiNPyG8+UJuEtRXuXeunqWgQ1DpYEc7vTBTbEz5Rfy3NTPVEU5T7vHNq3nUO3JfTzEBjHCNDVmItMvE2wyY4iS0X7JHL0M3/tbbQ2ljshtJAwXoWw+FMA29Jh2wgKP84e/Ivg0n6TVj1dfANY9kcMFBWN+rJUq9szJN0lzPQ1V5cNEJNlq7pqA014pf4G71OhHT4Xv3C4lv9o9RUi3zfvhCwcv4hHDPlWfIIqPj5dUmE74pUPnAj4CySHUkNUKI0zYwkxkHmWDDYaT9PTb1IAMfjbbcCvG5gjYyPq3Y3nd6Vhmt23HXrlnwn/kR0xA98I2n1xppIFGzZSbNXPTlV1YJ7Di1ZukLT7KUdlpqEhi1JZrciitRFFeHfVAN1m0YK8CHD1FdKBCRS216wXN5fI/zpTX3s6Szk0TJReyieaQ+t2KH7FNFjERCs5GGhZWirfHlgNsYIvaA0Q874QC3MOZ1rvKBzocJoMilAT/NGGGvDw3R3qckopld1gGR0pZgXY1yiI/czXUezeo7U31ImT9zq/tqM0adM58bPTv5Zpr2soi7LfL71bZORyhx0U4nTslyajH58vq7YclDR4xzjE3fk7Ijxb0vMM20Fgprj2KWrS4p0X3+B400yHutF0nrcaHsfhlPmql5gxD0XtRnxFT9GLYBa7VGbIHp2BsOFPyWhMQZ/HMndhE7zoZiNkBs1c7gveoyxtrEVSng/a+Z99BuXrUSzLnh13SMy1JcsHR2EkZCDiecnE0t3pwMEAL9bjx7ap1OU2WdZEZM4gJEyvFZFLeFsPUldfDxPDVqg8Mt1oI4kip2cOSMUS2x3QTCWEHGkcEbsVuroa6UgGN7J+9ui6YFNAT940apMhrf79BOrVOlqU78rEO4khPEYoi7MgOBwyh2N0TmCA2FEZMbBebTblbLatpN3YQjPXu6UE/zG4wXAPE6h4vKhrYDQgqCq0QRcKBIGwFf3yuhnr5Da6GOoOZh5/XnRRRQE/ct2jWSGZPGUb3F9kMRcr0FCl6z0beopsVPlNtH0csEBNMRmOkpCTLDTZ+Vki8Xhc0jh+MYOgL8yMcIbJNRwMJQpmjJZa2LfzAnIYaNnSgyoNQs9ubHM24liemJ+6pOK2aOkz2bPHJfkzSc5PBqumjoQAxQCwQE8SGwkgpdCw/2JBI+kdblIwWchsvV4UXCIEWXg31kTkNdbeehgIA64BWSkvikZ6473Jia1n83o3yy7eH4F4dkgSbp0jpKUTzFJwNeqLCAqJpbJSWQpSclfY7bJia4a0XcLt+dLni0uAGDO4WqrSiwILQMNkc01Dfw/wx7KoOMumRG6xFKkVbK5RWmbpnJgW00vDVwpVYfDNVelzYSA7D3MERw5nA6Sm3Oxj05bgDwc4bsrz5wIDCRmnpR8XZCDTa3Jg4DBZTTEUByxscCAQa9/2n3/3Fg1rJM0dMQ0XZJxwoT21OQnuKcLuHWfOGKk+RhnAsdS7QthYPtdOYQiyYdtiy5feoS5B9cSslpxUWul8K+g7vBytVHwivTEXY4dRqqG350qVdfXnxset+VdNQlaFdSXHVTAO8Zwb1O0XenXklNPod8BSp9AAEfgOvH7Q5254YYP4aEyWVRd+PPvesLHC35+PWfnP3gQbt+6e64hL7ws5CS2/0aSESGTtnB1bvwzQUFo1kT7tFjm/ZRNnSqt5bQZPh2DsSbFrG7dqpjXToliCTH/le0rqmqJX8ds0/ytrjq8mJ/L7o05uzHvyIWNj65j3lUhQ59xR1yM7eqhL3BwJPe+TwCCC9AaYrOJxGzSk5JeWnnQO2sx9euF7SWjdTC1sINPpwKROhLiGRyRFVH/V9+7E8z/Q7JR3LSi8ynn6/pPv6eUnHkuKVdL+kdPR9HQ/X1ERpu7zuqn5y4FCBjHx4vnTvlFxRm5vmavvY9sxOY0FnXdqxwsIQEZ2dPdyXNmDCeFdc8tig/3AhQKCsvaVlGPmMYNsLY2PXZolyTs/jZd/BfKVVlQqoyETs1zZC22//Ks9BC3Iwbo5YLwFbR2Da6uUFOdJC7VtSAYpgetrlSYoP+g5NyMkcO05joLwpVRhsWvtoPujJ5IRA/lpoJy2hmUbN3YgNAm4/ALcbG+ZJSoVG4/LW99f5HscbfHhEsA9c++PrYZPCIweMchKF3rhchLy1wF3vxO2z78Wqu7I1UHvaFRpGzQSomYK7zR5+qE3/iaNd7vhXQkFsjc3JiygC0c5RlKvYW2K3RcSPInbdq+WlAOU3mj643rRiHAbmDne8KxjIG02gmVxN7TBZ3iJUMN+i5FFugsMIpQ2Y+K3LndAnECjw42aFQFwHsyLCVtVZRYCGdvG73QmeYKBgYU7mmNMtjsYiRtVkUXGhYggQEmttKTykRsEThOjFOFi2zaWYtBTySYy6X9XRoDi6l34PK93RpmxbtrF612zzqIDGeJUXkDZkBclSV3/1l02p7fuluOOSzoJazD1VK5+2qlndnxqmgM8Vl+TBbMFTmzLHTGNbb/36Hpq6og6V5WwqQ63+bvL7/wZj30/wd6NWWqECRV2DughVSQE/25JtyrZlRrqtK5KpI2DDng5Bob9bltcPpnu9Mu5g+6SKDqcVqUhdHKcpwIl2zuPjwDZF26o2ZltXMDg31GE47d7dG7924dgNDdqdgwmN5H51w2kFWyU2oqnhM+TPG58zb+x0tm3ud16KRxUOlMWdDDo9aKcTvnR5EvsG/fgQunK0dDKburSqmAI+l6ceHSPnw3h7DvIKt2tl8nVoGA0XgSvoVZqwWl8OoO2CIZArs+rktzCJYv7EzzZj27ENVWnNNo1a+4ysqdNg4x4PAWosW7K8O6EqX2Z1Cg/6RoXH+shC111XEQXMNoKNVO18cBnbkG1ZlgdueUvjPNiQM+dMuw/xxm/KHDsfvpV3wEuAcibAVjH7W3krU/deZSiAfUrRRmyrYMA/gm3HNmRbViZVe1znFAR7qjjPXZkVoPay//OxC1Pbnp3kjk+BK1Jhnf0tgk4xdOlzxyfDT+3QE5vmjX2UbZf7SeUUgsi6acEv8r5T10jfy1+w7YCJbxpxSdcEfXnY6C2U4FQGdek4QQGjABwtIeQ7/N+NmWN+j/bCiOeljFZpOc1euioZRm0ZhMRrXrESANosVgrDKQBXF2KDAibQwNFmmUBDqbyqZI4CjSlWNWdTpeZKemu1tGDC/ksAri92vanjcCZ1avAvgVYvAUwAJo4xNHHgy21FbeV0waqas5nl5bJ8zjAg5DT+oR8qt6COwzndlNGmpzla3gK2iYrNNjK3UIg2sXK9Xz2cTReFOxJysTNC2oCHZgNw52Hejd+mjNrDVydZd6wQBQoxuY45z7w5OZkPDlIp2NqmQimWI1L1cDZdEAJNczhUEhbqGdCAALTiP/Oso9UdHaMA5DDD5wLNSfsw0BRHM5mAYzkVk1CVmT6Kycu8hTlUJResXBna9/O8GQ3Szm7gik+EW5KaZKDht3o7QIkFPeYecETBnDVWRhUefgYy2i2qhpTRPpmsRpuqrnH1g401AtDU3hBZn8u+9efOSm17zh64slyIxWcAWqjOFud8q/sM7NjH/yF/4V0588ZMAJ0NWKVcMnlytc3sVK/MdhQRUWF6fcJ9JW3gxIGw6ryLzUpSsZ9+nRx3FK0qfAMrohIwbBZgQblckTN3zFwlymSNAzer3hmdGh6yUFkAje4rJELIFegKonwH9yTKcWTt1cLeK9yMsR2RYAqQlqQpaUsak9bKN62agUZS1TBnK2otTvjqebg2/Sc8id54DxY+47+/jssVkam8Z4XYERKbcWCht7/gKUw/3cuIdhqXNyEn34sZsKlK2dRva1h9DSp6S6jo6KVc2y3KVuckAY6xtKBlGUoJgElpK1jJ9WrYZCVttK2pOtfwMBpRbWWDCxnsgSQSF8MCaC9AsHVDgSDQfCBgtQm0EaWL3UuTJj7SiLQizUg70lC5CFEZsOybNVmJ2OJsNkpwG6bs7BeUe0vbAQ/3g/fLJHA5yHTYCkyCHFr5ofbY6iy28lfLqQkycDNXPDxrBdxsFZYNjNyYOfpz5m+nYbWUp4xMYhZsqtzYOpM7GmrQtRk48W6oFF6ALhW9F6/QTGKA43Fp468pUIsMcciMg92MINtPQ8amuWOeIRUUyLi1mdcbU6NA7WgkWri5ugehxYWPNI0r8I+FaHK7Oy4Rn7FRm0lr29yxzukIHmroCmQBH75MEgpN8SV4Jmz79IFc0sc0a5i0Utcx9Kd2gE0RjLLcCx6tsaYN9LbHtiJ/wxByEzwX3CF86zKE5Vzo7QBc5bddjaE2QlFoBsJujxD9DWyaDI8ZXAenYvfkR3Pmen9mWU1N8zZyOypSMRlqEdgs+kUOrf0ndsDndUZgvcMwDK8NiTdsTggOoBqIMyS1lduF6wDB3wWccbjcCyhNxYNJm+aN+YkUidUh02qtIw61D2y6+JjTS/+5kUvLc8cPeKSJSwI3YreeG2Fj6oEfpBpsGYdv3bCro6IAHXcri1X5TslhtO8E2ShqegmmMrXHht+/PGSEpgXFPW1z5gO7SAIFsvZ7glXpEsR8nAy1F2yaChGg4+22/Sf2R6PdCIT9FlpaE0IN6x8IPDAFJfOw3uR6NV1/9gPKYDziA4Vul7UpNoyx+btw9xMUcNrGeWPm4bkKtRFkuuw1TWxdDgeO0FzTW0JzLVoN1C7D2zDk8QwIBUNXAVYZGI6acThS3ILiHdCHjAlA0AFcjxv2cNMB50HIVDHSm9wL6RNcLrIvlkdxYXP434EnWYbLeNvw+zM3ZHn34j0VTJmM28vGloapy1ee4zEEtnB1ASuv6c1iabB80vFCb2qhz90HjUlnwQz8uoGLJLOhgT6FO+yqyHMCAQA08OMpSaSGXoBRQYbA1Pf4HC/hvwKTisAL8575HmVGAAuSpctNfOExttDgFlSBQuzeKCvxy8Krs+PjAgvXferdj2szWL5/0MQ199NPauXxWASbrSFCRga8SrJ4xwY8XrY9/+GWAX+wJ5r9DGCpFwDTCUhIA/iSFAABCAUiNUsGpgRAEpQ4AaKIJfwYyBAJKoqDiANE8aZ5zSOBTGBh02HEycGDNcDiEuz/+LXb41q6cdborSod/QcAy8B5Vg14ZegiVNUR1PiVBGix4B+uDFS3+IYMGcdnjD/e7fG0Az7aGPiQDV5tCwI1x5eLG0HxaAzkUP6rh/vx+CXix8ApDS7ewdHYhZW+u8HD9gCQO3C9IRQyNgB/mwJ+/4bNWeM2456FUhUXf2wdIgMcNcYMsbqUThz/HyK8xpwCBTsAAAAAAElFTkSuQmCC;" parent="1" vertex="1">
          <mxGeometry x="936.1600000000001" y="245" width="67.68" height="62" as="geometry" />
        </mxCell>
        <mxCell id="Y_TupKAwdbb3aOkOoUc_-56" style="edgeStyle=orthogonalEdgeStyle;rounded=0;html=1;exitX=0;exitY=0.5;exitDx=0;exitDy=0;exitPerimeter=0;jettySize=auto;orthogonalLoop=1;" parent="1" edge="1">
          <mxGeometry relative="1" as="geometry">
            <mxPoint x="614" y="473.5" as="sourcePoint" />
            <mxPoint x="526.5" y="473.5" as="targetPoint" />
          </mxGeometry>
        </mxCell>
        <mxCell id="Y_TupKAwdbb3aOkOoUc_-60" value="Status Notification To&lt;br&gt;Original Channels" style="text;html=1;strokeColor=none;fillColor=none;align=center;verticalAlign=middle;whiteSpace=wrap;rounded=0;" parent="1" vertex="1">
          <mxGeometry x="428" y="310.5" width="121.62" height="38.5" as="geometry" />
        </mxCell>
        <mxCell id="eQHoO0I1sAO4lnQkATsk-59" value="" style="outlineConnect=0;dashed=0;verticalLabelPosition=bottom;verticalAlign=top;align=center;html=1;shape=mxgraph.aws3.ec2;fillColor=#F58534;gradientColor=none;" parent="1" vertex="1">
          <mxGeometry x="197.5" y="570" width="20" height="20" as="geometry" />
        </mxCell>
        <mxCell id="eQHoO0I1sAO4lnQkATsk-60" value="" style="outlineConnect=0;dashed=0;verticalLabelPosition=bottom;verticalAlign=top;align=center;html=1;shape=mxgraph.aws3.step_functions;fillColor=#D9A741;gradientColor=none;" parent="1" vertex="1">
          <mxGeometry x="198.25" y="590" width="20" height="20" as="geometry" />
        </mxCell>
        <mxCell id="eQHoO0I1sAO4lnQkATsk-61" value="" style="outlineConnect=0;dashed=0;verticalLabelPosition=bottom;verticalAlign=top;align=center;html=1;shape=mxgraph.aws3.android;fillColor=#115193;gradientColor=none;" parent="1" vertex="1">
          <mxGeometry x="197.5" y="610" width="20" height="20" as="geometry" />
        </mxCell>
        <mxCell id="eQHoO0I1sAO4lnQkATsk-64" value="AWSLambda" style="text;html=1;strokeColor=none;fillColor=none;align=left;verticalAlign=middle;whiteSpace=wrap;rounded=0;fontStyle=1" parent="1" vertex="1">
          <mxGeometry x="230" y="570" width="190" height="20" as="geometry" />
        </mxCell>
        <mxCell id="eQHoO0I1sAO4lnQkATsk-65" value="AWSStepFunction" style="text;html=1;strokeColor=none;fillColor=none;align=left;verticalAlign=middle;whiteSpace=wrap;rounded=0;" parent="1" vertex="1">
          <mxGeometry x="230" y="590" width="190" height="20" as="geometry" />
        </mxCell>
        <mxCell id="eQHoO0I1sAO4lnQkATsk-66" value="Echo" style="text;html=1;strokeColor=none;fillColor=none;align=left;verticalAlign=middle;whiteSpace=wrap;rounded=0;fontStyle=1" parent="1" vertex="1">
          <mxGeometry x="230" y="610" width="190" height="20" as="geometry" />
        </mxCell>
        <mxCell id="eQHoO0I1sAO4lnQkATsk-69" value="" style="outlineConnect=0;dashed=0;verticalLabelPosition=bottom;verticalAlign=top;align=center;html=1;shape=mxgraph.aws3.api_gateway;fillColor=#D9A741;gradientColor=none;rotation=0;" parent="1" vertex="1">
          <mxGeometry x="197.5" y="630" width="20" height="20" as="geometry" />
        </mxCell>
        <mxCell id="eQHoO0I1sAO4lnQkATsk-72" value="Rest" style="text;html=1;strokeColor=none;fillColor=none;align=left;verticalAlign=middle;whiteSpace=wrap;rounded=0;" parent="1" vertex="1">
          <mxGeometry x="229.25" y="630" width="190" height="20" as="geometry" />
        </mxCell>
        <mxCell id="eQHoO0I1sAO4lnQkATsk-74" value="" style="outlineConnect=0;dashed=0;verticalLabelPosition=bottom;verticalAlign=top;align=center;html=1;shape=mxgraph.aws3.ec2_systems_manager;fillColor=#759C3E;gradientColor=none;rotation=0;" parent="1" vertex="1">
          <mxGeometry x="198.25" y="650" width="20" height="20" as="geometry" />
        </mxCell>
        <mxCell id="eQHoO0I1sAO4lnQkATsk-75" value="AWSSystemManager" style="text;html=1;strokeColor=none;fillColor=none;align=left;verticalAlign=middle;whiteSpace=wrap;rounded=0;" parent="1" vertex="1">
          <mxGeometry x="230" y="650" width="190" height="20" as="geometry" />
        </mxCell>
        <mxCell id="eQHoO0I1sAO4lnQkATsk-87" value="syntinel-signals&lt;br&gt;syntinel-reporters&lt;br&gt;syntinel-channels&lt;br&gt;syntinel-router&lt;br&gt;syntinel-templates" style="text;html=1;strokeColor=none;fillColor=none;align=left;verticalAlign=top;whiteSpace=wrap;rounded=0;" parent="1" vertex="1">
          <mxGeometry x="257.5" y="259" width="142.5" height="83" as="geometry" />
        </mxCell>
        <mxCell id="LHkBJI814Pmu1GokbgqB-56" value="" style="outlineConnect=0;dashed=0;verticalLabelPosition=bottom;verticalAlign=top;align=center;html=1;shape=mxgraph.aws3.android;fillColor=#115193;gradientColor=none;" vertex="1" parent="1">
          <mxGeometry x="198.25" y="670" width="20" height="20" as="geometry" />
        </mxCell>
        <mxCell id="LHkBJI814Pmu1GokbgqB-57" value="UpdateStatus" style="text;html=1;strokeColor=none;fillColor=none;align=left;verticalAlign=middle;whiteSpace=wrap;rounded=0;" vertex="1" parent="1">
          <mxGeometry x="230.75" y="670" width="190" height="20" as="geometry" />
        </mxCell>
      </root>
    </mxGraphModel>
  </diagram>
</mxfile>
